<svg xmlns="http://www.w3.org/2000/svg" viewBox="0 0 100 100">
  <defs>
    <radialGradient id="waxGrad" cx="35%" cy="30%" r="100%">
      <stop offset="0%" stop-color="#7A1F26" />
      <stop offset="100%" stop-color="#3F0F14" />
    </radialGradient>
    <radialGradient id="highlightGrad" cx="35%" cy="30%" r="100%">
      <stop offset="0%" stop-color="rgba(255,255,255,0.15)" />
      <stop offset="50%" stop-color="transparent" />
    </radialGradient>
    <filter id="waxShadow" x="-20%" y="-20%" width="140%" height="140%">
      <feDropShadow dx="0" dy="2" stdDeviation="3" flood-color="rgba(0,0,0,0.4)" />
    </filter>
  </defs>

  <!-- Wax blob -->
  <path d="M50 94 Q50 98 54 98 Q58 98 58 94 Q58 90 54 90 Q50 90 50 94 M50 6 Q46 2 42 2 Q38 2 38 6 Q38 10 42 10 Q46 10 50 6 M94 50 Q98 46 98 42 Q98 38 94 38 Q90 38 90 42 Q90 46 94 46 M6 50 Q2 46 2 42 Q2 38 6 38 Q10 38 10 42 Q10 46 6 46 Z" fill="url(#waxGrad)" filter="url(#waxShadow)" />

  <!-- Inner highlight -->
  <circle cx="50" cy="50" r="34" fill="none" stroke="url(#highlightGrad)" stroke-width="2" />

  <!-- Laurel wreath (simplified) -->
  <g fill="#D8D0BC" fill-opacity="0.35">
    <ellipse cx="32" cy="32" rx="2.5" ry="6.5" transform="rotate(120 32 32)" />
    <ellipse cx="68" cy="32" rx="2.5" ry="6.5" transform="rotate(60 68 32)" />
    <ellipse cx="22" cy="50" rx="2.5" ry="6.5" transform="rotate(150 22 50)" />
    <ellipse cx="78" cy="50" rx="2.5" ry="6.5" transform="rotate(30 78 50)" />
    <ellipse cx="32" cy="68" rx="2.5" ry="6.5" transform="rotate(180 32 68)" />
    <ellipse cx="68" cy="68" rx="2.5" ry="6.5" transform="rotate(0 68 68)" />
  </g>

  <!-- Center B -->
  <text x="50" y="57" text-anchor="middle" dominant-baseline="central" font-family="Georgia, serif" font-size="34" font-weight="600" fill="#3F0F14">B</text>
  <text x="49" y="56" text-anchor="middle" dominant-baseline="central" font-family="Georgia, serif" font-size="34" font-weight="600" fill="#D8D0BC" fill-opacity="0.35">B</text>
</svg>